<?xml version="1.0" encoding="UTF-8"?>
<svg xmlns="http://www.w3.org/2000/svg" viewBox="0 0 360 504" width="360" height="504">
  <title>Secvier mahjong dragon hatsu (H/T)</title>
  <desc>RadianN_kswg / ラジアン（柏木主税） CC BY 4.0</desc>
  <rect x="5" y="5" width="350" height="494" rx="32" fill="#FAFAFA" stroke="#AFAFAF" stroke-width="9"/><rect x="20" y="20" width="320" height="464" rx="22" fill="none" stroke="#CFCFCF" stroke-width="4"/>
  <g transform="translate(259.00,55.00) scale(0.1602,0.1602)"><g transform="matrix(0.512000,0,0,-0.512000,68.352,384.000)">
    <path d="M497.5 700.0V525.0H235.0V700.0H60.0V0.0H235.0V350.0H497.5V0.0H672.5V700.0Z" fill="#218A48"/>
  </g></g><g transform="rotate(180,180.0,252.0)"><g transform="translate(259.00,55.00) scale(0.1602,0.1602)"><g transform="matrix(0.512000,0,0,-0.512000,74.240,384.000)">
    <path d="M5.0 700.0V612.5L92.5 525.0H267.5V0.0H442.5V525.0H617.5L705.0 612.5V700.0Z" fill="#218A48"/>
  </g></g></g><g fill="#218A48"><svg xmlns:xlink="http://www.w3.org/1999/xlink" x="76.00" y="150.00" width="208.00" height="208.00" viewBox="0 0 1000 1000"><title>Dela Gothic One 發 (hatsu)</title>
  <g transform="translate(74.894,825.957) scale(0.85106,-0.85106)"><path d="M969 145Q965 136 937 66Q917 17 912 1Q803 8 691 46Q645 32 537 11Q495 4 471 -2Q457 45 422 108Q413 47 376.0 25.5Q339 4 285 4Q207 4 133 6Q123 7 103 7L96 30Q82 74 68.5 106.0Q55 138 33 160L67 157Q106 153 139.0 151.5Q172 150 221 150Q232 150 234.5 154.5Q237 159 237 176H33L52 386H238V403H133V429Q81 419 60 416Q55 455 43.5 489.5Q32 524 6 571Q34 567 72 567Q95 567 106 568L80 585L148 621H65V748H480L484 719L572 768Q599 741 632 713Q657 741 671 762L802 700Q780 668 751 639Q761 636 767 632Q818 687 851 731L989 645Q980 635 933 590Q953 588 993 586Q955 507 935 443L959 438Q955 376 942.5 349.5Q930 323 901 322Q857 320 786 320Q730 320 702 322Q677 325 665.5 340.5Q654 356 654 377H632Q616 343 564 307L935 309L966 214Q928 174 876 137Q930 135 969 145ZM230 621Q241 613 265 599Q292 608 313 621ZM510 546Q447 515 356 487H425V424Q462 430 492.0 453.0Q522 476 522 508H668Q573 551 501 605ZM775 447Q775 444 788.5 442.5Q802 441 817 441Q837 441 853 443Q814 454 775 467ZM222 284H425V180L487 208H442V307H466Q447 367 425 398V301H223ZM733 208H630Q651 189 680 176Q709 190 733 208ZM486 134 449 154Q441 159 425 167V147V141Q462 134 486 134Z"/></g></svg></g>
</svg>
