<?xml version="1.0" encoding="UTF-8"?>
<svg xmlns="http://www.w3.org/2000/svg" viewBox="0 0 360 504" width="360" height="504">
  <title>Secvier mahjong wind south (S)</title>
  <desc>RadianN_kswg / ラジアン（柏木主税） CC BY 4.0</desc>
  <rect x="5" y="5" width="350" height="494" rx="32" fill="#FAFAFA" stroke="#AFAFAF" stroke-width="9"/><rect x="20" y="20" width="320" height="464" rx="22" fill="none" stroke="#CFCFCF" stroke-width="4"/>
  <g transform="translate(259.00,55.00) scale(0.1602,0.1602)"><g transform="matrix(0.512000,0,0,-0.512000,81.920,384.000)">
    <path d="M41.0 437.5 216.0 262.5H391.0L478.5 175.0H41.0V87.5L128.5 0.0H566.0L653.5 87.5V262.5L478.5 437.5H303.5L216.0 525.0H566.0V612.5L478.5 700.0H128.5L41.0 612.5Z" fill="#26346F"/>
  </g></g><g transform="rotate(180,180.0,252.0)"><g transform="translate(259.00,55.00) scale(0.1602,0.1602)"><g transform="matrix(0.512000,0,0,-0.512000,81.920,384.000)">
    <path d="M41.0 437.5 216.0 262.5H391.0L478.5 175.0H41.0V87.5L128.5 0.0H566.0L653.5 87.5V262.5L478.5 437.5H303.5L216.0 525.0H566.0V612.5L478.5 700.0H128.5L41.0 612.5Z" fill="#26346F"/>
  </g></g></g><g fill="#26346F"><svg xmlns:xlink="http://www.w3.org/1999/xlink" x="76.00" y="150.00" width="208.00" height="208.00" viewBox="0 0 1000 1000"><title>Dela Gothic One 南 (south)</title>
  <g transform="translate(44.469,850.304) scale(0.91106,-0.91106)"><path d="M961 595H610V578H950V149Q950 90 934.5 60.5Q919 31 880.5 20.0Q842 9 764 9Q717 9 690 10Q689 57 684 103H592V4H408V103H285V240H408V257H285V373H327Q321 386 311 412L465 430Q470 411 484 373H516Q530 411 535 430L689 412Q679 386 673 373H715V257H592V240H715V157Q727 158 730.0 167.5Q733 177 733 203V435H268V0H43V578H390V595H39V742H390V769H610V742H961Z"/></g></svg></g>
</svg>
