<?xml version="1.0" encoding="UTF-8"?>
<svg xmlns="http://www.w3.org/2000/svg" viewBox="0 0 360 504" width="360" height="504">
  <title>Secvier mahjong man 8</title>
  <desc>RadianN_kswg / ラジアン（柏木主税） CC BY 4.0</desc>
  <rect x="5" y="5" width="350" height="494" rx="32" fill="#FAFAFA" stroke="#AFAFAF" stroke-width="9"/><rect x="20" y="20" width="320" height="464" rx="22" fill="none" stroke="#CFCFCF" stroke-width="4"/>
  <g transform="translate(267.00,51.00) scale(0.1289,0.1289)"><g transform="matrix(0.512000,0,0,-0.512000,69.888,384.000)">
    <path d="M57.0 437.5 144.5 350.0 57.0 262.5V87.5L144.5 0.0H582.0L669.5 87.5V262.5L582.0 350.0L669.5 437.5V612.5L582.0 700.0H144.5L57.0 612.5ZM232.0 262.5H407.0L494.5 175.0H232.0ZM232.0 525.0H494.5V437.5H319.5Z" fill="#1E1E2A"/>
  </g></g><g transform="translate(260.00,122.00) scale(0.0859,0.0859)"><g transform="matrix(0.512000,0,0,-0.512000,81.920,384.000)">
    <path d="M41.0 437.5 216.0 262.5H391.0L478.5 175.0H41.0V87.5L128.5 0.0H566.0L653.5 87.5V262.5L478.5 437.5H303.5L216.0 525.0H566.0V612.5L478.5 700.0H128.5L41.0 612.5Z" fill="#1E1E2A"/>
  </g></g><g transform="translate(296.00,122.00) scale(0.0859,0.0859)"><g transform="matrix(0.512000,0,0,-0.512000,60.160,384.000)">
    <path d="M60.0 700.0V0.0H147.5L760.0 612.5V700.0H585.0L235.0 350.0V700.0Z" fill="#1E1E2A"/>
  </g></g><g transform="rotate(180,180.0,252.0)"><g transform="translate(267.00,51.00) scale(0.1289,0.1289)"><g transform="matrix(0.512000,0,0,-0.512000,69.888,384.000)">
    <path d="M57.0 437.5 144.5 350.0 57.0 262.5V87.5L144.5 0.0H582.0L669.5 87.5V262.5L582.0 350.0L669.5 437.5V612.5L582.0 700.0H144.5L57.0 612.5ZM232.0 262.5H407.0L494.5 175.0H232.0ZM232.0 525.0H494.5V437.5H319.5Z" fill="#1E1E2A"/>
  </g></g><g transform="translate(260.00,122.00) scale(0.0859,0.0859)"><g transform="matrix(0.512000,0,0,-0.512000,81.920,384.000)">
    <path d="M41.0 437.5 216.0 262.5H391.0L478.5 175.0H41.0V87.5L128.5 0.0H566.0L653.5 87.5V262.5L478.5 437.5H303.5L216.0 525.0H566.0V612.5L478.5 700.0H128.5L41.0 612.5Z" fill="#1E1E2A"/>
  </g></g><g transform="translate(296.00,122.00) scale(0.0859,0.0859)"><g transform="matrix(0.512000,0,0,-0.512000,60.160,384.000)">
    <path d="M60.0 700.0V0.0H147.5L760.0 612.5V700.0H585.0L235.0 350.0V700.0Z" fill="#1E1E2A"/>
  </g></g></g><g transform="translate(105.00,131.00) scale(0.2930,0.2930)"><g transform="matrix(0.512000,0,0,-0.512000,69.888,384.000)">
    <path d="M57.0 437.5 144.5 350.0 57.0 262.5V87.5L144.5 0.0H582.0L669.5 87.5V262.5L582.0 350.0L669.5 437.5V612.5L582.0 700.0H144.5L57.0 612.5ZM232.0 262.5H407.0L494.5 175.0H232.0ZM232.0 525.0H494.5V437.5H319.5Z" fill="#1E1E2A"/>
  </g></g><g transform="translate(82.00,274.00) scale(0.2188,0.2188)"><g transform="matrix(0.512000,0,0,-0.512000,81.920,384.000)">
    <path d="M41.0 437.5 216.0 262.5H391.0L478.5 175.0H41.0V87.5L128.5 0.0H566.0L653.5 87.5V262.5L478.5 437.5H303.5L216.0 525.0H566.0V612.5L478.5 700.0H128.5L41.0 612.5Z" fill="#B81430"/>
  </g></g><g transform="translate(166.00,274.00) scale(0.2188,0.2188)"><g transform="matrix(0.512000,0,0,-0.512000,60.160,384.000)">
    <path d="M60.0 700.0V0.0H147.5L760.0 612.5V700.0H585.0L235.0 350.0V700.0Z" fill="#B81430"/>
  </g></g>
</svg>
