<?xml version="1.0" encoding="UTF-8"?>
<svg xmlns="http://www.w3.org/2000/svg" viewBox="0 0 360 504" width="360" height="504">
  <title>Secvier mahjong pin 1</title>
  <desc>RadianN_kswg / ラジアン（柏木主税） CC BY 4.0</desc>
  <rect x="5" y="5" width="350" height="494" rx="32" fill="#FAFAFA" stroke="#AFAFAF" stroke-width="9"/><rect x="20" y="20" width="320" height="464" rx="22" fill="none" stroke="#CFCFCF" stroke-width="4"/>
  <g transform="translate(267.00,51.00) scale(0.1289,0.1289)"><g transform="matrix(0.512000,0,0,-0.512000,162.816,384.000)">
    <path d="M216.0 700.0 41.0 525.0 128.5 437.5V0.0H303.5V700.0Z" fill="#1E1E2A"/>
  </g></g><g transform="translate(273.00,115.00) scale(0.1055,0.1055)"><g transform="matrix(0.512000,0,0,-0.512000,49.152,384.000)">
    <path d="M666.5 700.0H141.5L54.0 612.5V87.5L141.5 0.0H666.5L754.0 87.5V612.5ZM579.0 175.0H229.0V525.0H579.0Z" fill="#1E1E2A"/>
  </g></g><g transform="rotate(180,180.0,252.0)"><g transform="translate(267.00,51.00) scale(0.1289,0.1289)"><g transform="matrix(0.512000,0,0,-0.512000,162.816,384.000)">
    <path d="M216.0 700.0 41.0 525.0 128.5 437.5V0.0H303.5V700.0Z" fill="#1E1E2A"/>
  </g></g><g transform="translate(273.00,115.00) scale(0.1055,0.1055)"><g transform="matrix(0.512000,0,0,-0.512000,49.152,384.000)">
    <path d="M666.5 700.0H141.5L54.0 612.5V87.5L141.5 0.0H666.5L754.0 87.5V612.5ZM579.0 175.0H229.0V525.0H579.0Z" fill="#1E1E2A"/>
  </g></g></g><g transform="translate(96.00,186.80) scale(0.3281,0.3281)"><g transform="matrix(0.512000,0,0,-0.512000,49.152,384.000)">
    <path d="M666.5 700.0H141.5L54.0 612.5V87.5L141.5 0.0H666.5L754.0 87.5V612.5ZM579.0 175.0H229.0V525.0H579.0Z" fill="#26346F"/>
  </g></g><g transform="translate(128.00,212.40) scale(0.2031,0.2031)"><g transform="matrix(0.512000,0,0,-0.512000,49.152,384.000)">
    <path d="M666.5 700.0H141.5L54.0 612.5V87.5L141.5 0.0H666.5L754.0 87.5V612.5ZM579.0 175.0H229.0V525.0H579.0Z" fill="#B81430"/>
  </g></g><circle cx="180.00" cy="254.00" r="22" fill="#26346F"/>
</svg>
