<?xml version="1.0" encoding="UTF-8"?>
<svg xmlns="http://www.w3.org/2000/svg" viewBox="0 0 360 504" width="360" height="504">
  <title>Secvier mahjong pin 5 (red dora)</title>
  <desc>RadianN_kswg / ラジアン（柏木主税） CC BY 4.0</desc>
  <rect x="5" y="5" width="350" height="494" rx="32" fill="#FAFAFA" stroke="#AFAFAF" stroke-width="9"/><rect x="20" y="20" width="320" height="464" rx="22" fill="none" stroke="#CFCFCF" stroke-width="4"/>
  <g transform="translate(267.00,51.00) scale(0.1289,0.1289)"><g transform="matrix(0.512000,0,0,-0.512000,71.424,384.000)">
    <path d="M55.0 700.0V262.5H405.0L492.5 175.0H142.5V87.5L230.0 0.0H580.0L667.5 87.5V262.5L492.5 437.5H230.0V525.0H580.0L667.5 612.5V700.0Z" fill="#EC1B3A"/>
  </g></g><g transform="translate(273.00,115.00) scale(0.1055,0.1055)"><g transform="matrix(0.512000,0,0,-0.512000,49.152,384.000)">
    <path d="M666.5 700.0H141.5L54.0 612.5V87.5L141.5 0.0H666.5L754.0 87.5V612.5ZM579.0 175.0H229.0V525.0H579.0Z" fill="#EC1B3A"/>
  </g></g><g transform="rotate(180,180.0,252.0)"><g transform="translate(267.00,51.00) scale(0.1289,0.1289)"><g transform="matrix(0.512000,0,0,-0.512000,71.424,384.000)">
    <path d="M55.0 700.0V262.5H405.0L492.5 175.0H142.5V87.5L230.0 0.0H580.0L667.5 87.5V262.5L492.5 437.5H230.0V525.0H580.0L667.5 612.5V700.0Z" fill="#EC1B3A"/>
  </g></g><g transform="translate(273.00,115.00) scale(0.1055,0.1055)"><g transform="matrix(0.512000,0,0,-0.512000,49.152,384.000)">
    <path d="M666.5 700.0H141.5L54.0 612.5V87.5L141.5 0.0H666.5L754.0 87.5V612.5ZM579.0 175.0H229.0V525.0H579.0Z" fill="#EC1B3A"/>
  </g></g></g><g transform="translate(80.88,135.76) scale(0.2109,0.2109)"><g transform="matrix(0.512000,0,0,-0.512000,49.152,384.000)">
    <path d="M666.5 700.0H141.5L54.0 612.5V87.5L141.5 0.0H666.5L754.0 87.5V612.5ZM579.0 175.0H229.0V525.0H579.0Z" fill="#EC1B3A"/>
  </g></g><circle cx="134.88" cy="178.96" r="12.96" fill="#EC1B3A"/><g transform="translate(171.12,135.76) scale(0.2109,0.2109)"><g transform="matrix(0.512000,0,0,-0.512000,49.152,384.000)">
    <path d="M666.5 700.0H141.5L54.0 612.5V87.5L141.5 0.0H666.5L754.0 87.5V612.5ZM579.0 175.0H229.0V525.0H579.0Z" fill="#EC1B3A"/>
  </g></g><circle cx="225.12" cy="178.96" r="12.96" fill="#EC1B3A"/><g transform="translate(126.00,210.80) scale(0.2109,0.2109)"><g transform="matrix(0.512000,0,0,-0.512000,49.152,384.000)">
    <path d="M666.5 700.0H141.5L54.0 612.5V87.5L141.5 0.0H666.5L754.0 87.5V612.5ZM579.0 175.0H229.0V525.0H579.0Z" fill="#EC1B3A"/>
  </g></g><circle cx="180.00" cy="254.00" r="12.96" fill="#EC1B3A"/><g transform="translate(80.88,285.84) scale(0.2109,0.2109)"><g transform="matrix(0.512000,0,0,-0.512000,49.152,384.000)">
    <path d="M666.5 700.0H141.5L54.0 612.5V87.5L141.5 0.0H666.5L754.0 87.5V612.5ZM579.0 175.0H229.0V525.0H579.0Z" fill="#EC1B3A"/>
  </g></g><circle cx="134.88" cy="329.04" r="12.96" fill="#EC1B3A"/><g transform="translate(171.12,285.84) scale(0.2109,0.2109)"><g transform="matrix(0.512000,0,0,-0.512000,49.152,384.000)">
    <path d="M666.5 700.0H141.5L54.0 612.5V87.5L141.5 0.0H666.5L754.0 87.5V612.5ZM579.0 175.0H229.0V525.0H579.0Z" fill="#EC1B3A"/>
  </g></g><circle cx="225.12" cy="329.04" r="12.96" fill="#EC1B3A"/>
</svg>
