<?xml version="1.0" encoding="UTF-8"?>
<svg xmlns="http://www.w3.org/2000/svg" viewBox="0 0 360 504" width="360" height="504">
  <title>Secvier mahjong pin 8</title>
  <desc>RadianN_kswg / ラジアン（柏木主税） CC BY 4.0</desc>
  <rect x="5" y="5" width="350" height="494" rx="32" fill="#FAFAFA" stroke="#AFAFAF" stroke-width="9"/><rect x="20" y="20" width="320" height="464" rx="22" fill="none" stroke="#CFCFCF" stroke-width="4"/>
  <g transform="translate(267.00,51.00) scale(0.1289,0.1289)"><g transform="matrix(0.512000,0,0,-0.512000,69.888,384.000)">
    <path d="M57.0 437.5 144.5 350.0 57.0 262.5V87.5L144.5 0.0H582.0L669.5 87.5V262.5L582.0 350.0L669.5 437.5V612.5L582.0 700.0H144.5L57.0 612.5ZM232.0 262.5H407.0L494.5 175.0H232.0ZM232.0 525.0H494.5V437.5H319.5Z" fill="#1E1E2A"/>
  </g></g><g transform="translate(273.00,115.00) scale(0.1055,0.1055)"><g transform="matrix(0.512000,0,0,-0.512000,49.152,384.000)">
    <path d="M666.5 700.0H141.5L54.0 612.5V87.5L141.5 0.0H666.5L754.0 87.5V612.5ZM579.0 175.0H229.0V525.0H579.0Z" fill="#1E1E2A"/>
  </g></g><g transform="rotate(180,180.0,252.0)"><g transform="translate(267.00,51.00) scale(0.1289,0.1289)"><g transform="matrix(0.512000,0,0,-0.512000,69.888,384.000)">
    <path d="M57.0 437.5 144.5 350.0 57.0 262.5V87.5L144.5 0.0H582.0L669.5 87.5V262.5L582.0 350.0L669.5 437.5V612.5L582.0 700.0H144.5L57.0 612.5ZM232.0 262.5H407.0L494.5 175.0H232.0ZM232.0 525.0H494.5V437.5H319.5Z" fill="#1E1E2A"/>
  </g></g><g transform="translate(273.00,115.00) scale(0.1055,0.1055)"><g transform="matrix(0.512000,0,0,-0.512000,49.152,384.000)">
    <path d="M666.5 700.0H141.5L54.0 612.5V87.5L141.5 0.0H666.5L754.0 87.5V612.5ZM579.0 175.0H229.0V525.0H579.0Z" fill="#1E1E2A"/>
  </g></g></g><g transform="translate(97.40,113.48) scale(0.1758,0.1758)"><g transform="matrix(0.512000,0,0,-0.512000,49.152,384.000)">
    <path d="M666.5 700.0H141.5L54.0 612.5V87.5L141.5 0.0H666.5L754.0 87.5V612.5ZM579.0 175.0H229.0V525.0H579.0Z" fill="#26346F"/>
  </g></g><circle cx="142.40" cy="149.48" r="10.80" fill="#26346F"/><g transform="translate(172.60,113.48) scale(0.1758,0.1758)"><g transform="matrix(0.512000,0,0,-0.512000,49.152,384.000)">
    <path d="M666.5 700.0H141.5L54.0 612.5V87.5L141.5 0.0H666.5L754.0 87.5V612.5ZM579.0 175.0H229.0V525.0H579.0Z" fill="#26346F"/>
  </g></g><circle cx="217.60" cy="149.48" r="10.80" fill="#26346F"/><g transform="translate(97.40,183.16) scale(0.1758,0.1758)"><g transform="matrix(0.512000,0,0,-0.512000,49.152,384.000)">
    <path d="M666.5 700.0H141.5L54.0 612.5V87.5L141.5 0.0H666.5L754.0 87.5V612.5ZM579.0 175.0H229.0V525.0H579.0Z" fill="#26346F"/>
  </g></g><circle cx="142.40" cy="219.16" r="10.80" fill="#26346F"/><g transform="translate(172.60,183.16) scale(0.1758,0.1758)"><g transform="matrix(0.512000,0,0,-0.512000,49.152,384.000)">
    <path d="M666.5 700.0H141.5L54.0 612.5V87.5L141.5 0.0H666.5L754.0 87.5V612.5ZM579.0 175.0H229.0V525.0H579.0Z" fill="#26346F"/>
  </g></g><circle cx="217.60" cy="219.16" r="10.80" fill="#26346F"/><g transform="translate(97.40,252.84) scale(0.1758,0.1758)"><g transform="matrix(0.512000,0,0,-0.512000,49.152,384.000)">
    <path d="M666.5 700.0H141.5L54.0 612.5V87.5L141.5 0.0H666.5L754.0 87.5V612.5ZM579.0 175.0H229.0V525.0H579.0Z" fill="#B81430"/>
  </g></g><circle cx="142.40" cy="288.84" r="10.80" fill="#B81430"/><g transform="translate(172.60,252.84) scale(0.1758,0.1758)"><g transform="matrix(0.512000,0,0,-0.512000,49.152,384.000)">
    <path d="M666.5 700.0H141.5L54.0 612.5V87.5L141.5 0.0H666.5L754.0 87.5V612.5ZM579.0 175.0H229.0V525.0H579.0Z" fill="#B81430"/>
  </g></g><circle cx="217.60" cy="288.84" r="10.80" fill="#B81430"/><g transform="translate(97.40,322.52) scale(0.1758,0.1758)"><g transform="matrix(0.512000,0,0,-0.512000,49.152,384.000)">
    <path d="M666.5 700.0H141.5L54.0 612.5V87.5L141.5 0.0H666.5L754.0 87.5V612.5ZM579.0 175.0H229.0V525.0H579.0Z" fill="#B81430"/>
  </g></g><circle cx="142.40" cy="358.52" r="10.80" fill="#B81430"/><g transform="translate(172.60,322.52) scale(0.1758,0.1758)"><g transform="matrix(0.512000,0,0,-0.512000,49.152,384.000)">
    <path d="M666.5 700.0H141.5L54.0 612.5V87.5L141.5 0.0H666.5L754.0 87.5V612.5ZM579.0 175.0H229.0V525.0H579.0Z" fill="#B81430"/>
  </g></g><circle cx="217.60" cy="358.52" r="10.80" fill="#B81430"/>
</svg>
