<?xml version="1.0" encoding="UTF-8"?>
<svg xmlns="http://www.w3.org/2000/svg" viewBox="0 0 360 504" width="360" height="504">
  <title>Secvier mahjong pin 3</title>
  <desc>RadianN_kswg / ラジアン（柏木主税） CC BY 4.0</desc>
  <rect x="5" y="5" width="350" height="494" rx="32" fill="#FAFAFA" stroke="#AFAFAF" stroke-width="9"/><rect x="20" y="20" width="320" height="464" rx="22" fill="none" stroke="#CFCFCF" stroke-width="4"/>
  <g transform="translate(267.00,51.00) scale(0.1289,0.1289)"><g transform="matrix(0.512000,0,0,-0.512000,72.448,384.000)">
    <path d="M222.0 700.0 134.5 612.5V525.0H484.5L397.0 437.5H309.5L222.0 350.0V262.5H397.0L484.5 175.0H222.0L134.5 262.5H47.0V87.5L134.5 0.0H572.0L659.5 87.5V262.5L572.0 350.0L659.5 437.5V612.5L572.0 700.0Z" fill="#1E1E2A"/>
  </g></g><g transform="translate(273.00,115.00) scale(0.1055,0.1055)"><g transform="matrix(0.512000,0,0,-0.512000,49.152,384.000)">
    <path d="M666.5 700.0H141.5L54.0 612.5V87.5L141.5 0.0H666.5L754.0 87.5V612.5ZM579.0 175.0H229.0V525.0H579.0Z" fill="#1E1E2A"/>
  </g></g><g transform="rotate(180,180.0,252.0)"><g transform="translate(267.00,51.00) scale(0.1289,0.1289)"><g transform="matrix(0.512000,0,0,-0.512000,72.448,384.000)">
    <path d="M222.0 700.0 134.5 612.5V525.0H484.5L397.0 437.5H309.5L222.0 350.0V262.5H397.0L484.5 175.0H222.0L134.5 262.5H47.0V87.5L134.5 0.0H572.0L659.5 87.5V262.5L572.0 350.0L659.5 437.5V612.5L572.0 700.0Z" fill="#1E1E2A"/>
  </g></g><g transform="translate(273.00,115.00) scale(0.1055,0.1055)"><g transform="matrix(0.512000,0,0,-0.512000,49.152,384.000)">
    <path d="M666.5 700.0H141.5L54.0 612.5V87.5L141.5 0.0H666.5L754.0 87.5V612.5ZM579.0 175.0H229.0V525.0H579.0Z" fill="#1E1E2A"/>
  </g></g></g><g transform="translate(63.60,114.88) scale(0.2344,0.2344)"><g transform="matrix(0.512000,0,0,-0.512000,49.152,384.000)">
    <path d="M666.5 700.0H141.5L54.0 612.5V87.5L141.5 0.0H666.5L754.0 87.5V612.5ZM579.0 175.0H229.0V525.0H579.0Z" fill="#26346F"/>
  </g></g><circle cx="123.60" cy="162.88" r="14.40" fill="#26346F"/><g transform="translate(120.00,206.00) scale(0.2344,0.2344)"><g transform="matrix(0.512000,0,0,-0.512000,49.152,384.000)">
    <path d="M666.5 700.0H141.5L54.0 612.5V87.5L141.5 0.0H666.5L754.0 87.5V612.5ZM579.0 175.0H229.0V525.0H579.0Z" fill="#B81430"/>
  </g></g><circle cx="180.00" cy="254.00" r="14.40" fill="#B81430"/><g transform="translate(176.40,297.12) scale(0.2344,0.2344)"><g transform="matrix(0.512000,0,0,-0.512000,49.152,384.000)">
    <path d="M666.5 700.0H141.5L54.0 612.5V87.5L141.5 0.0H666.5L754.0 87.5V612.5ZM579.0 175.0H229.0V525.0H579.0Z" fill="#26346F"/>
  </g></g><circle cx="236.40" cy="345.12" r="14.40" fill="#26346F"/>
</svg>
