<?xml version="1.0" encoding="UTF-8"?>
<svg xmlns="http://www.w3.org/2000/svg" viewBox="0 0 360 504" width="360" height="504">
  <title>Secvier mahjong pin 7</title>
  <desc>RadianN_kswg / ラジアン（柏木主税） CC BY 4.0</desc>
  <rect x="5" y="5" width="350" height="494" rx="32" fill="#FAFAFA" stroke="#AFAFAF" stroke-width="9"/><rect x="20" y="20" width="320" height="464" rx="22" fill="none" stroke="#CFCFCF" stroke-width="4"/>
  <g transform="translate(267.00,51.00) scale(0.1289,0.1289)"><g transform="matrix(0.512000,0,0,-0.512000,99.072,384.000)">
    <path d="M46.0 437.5H133.5L221.0 525.0H396.0L221.0 350.0V0.0H396.0V350.0L571.0 525.0V700.0H46.0Z" fill="#1E1E2A"/>
  </g></g><g transform="translate(273.00,115.00) scale(0.1055,0.1055)"><g transform="matrix(0.512000,0,0,-0.512000,49.152,384.000)">
    <path d="M666.5 700.0H141.5L54.0 612.5V87.5L141.5 0.0H666.5L754.0 87.5V612.5ZM579.0 175.0H229.0V525.0H579.0Z" fill="#1E1E2A"/>
  </g></g><g transform="rotate(180,180.0,252.0)"><g transform="translate(267.00,51.00) scale(0.1289,0.1289)"><g transform="matrix(0.512000,0,0,-0.512000,99.072,384.000)">
    <path d="M46.0 437.5H133.5L221.0 525.0H396.0L221.0 350.0V0.0H396.0V350.0L571.0 525.0V700.0H46.0Z" fill="#1E1E2A"/>
  </g></g><g transform="translate(273.00,115.00) scale(0.1055,0.1055)"><g transform="matrix(0.512000,0,0,-0.512000,49.152,384.000)">
    <path d="M666.5 700.0H141.5L54.0 612.5V87.5L141.5 0.0H666.5L754.0 87.5V612.5ZM579.0 175.0H229.0V525.0H579.0Z" fill="#1E1E2A"/>
  </g></g></g><g transform="translate(77.60,115.36) scale(0.1797,0.1797)"><g transform="matrix(0.512000,0,0,-0.512000,49.152,384.000)">
    <path d="M666.5 700.0H141.5L54.0 612.5V87.5L141.5 0.0H666.5L754.0 87.5V612.5ZM579.0 175.0H229.0V525.0H579.0Z" fill="#26346F"/>
  </g></g><circle cx="123.60" cy="152.16" r="11.04" fill="#26346F"/><g transform="translate(134.00,152.88) scale(0.1797,0.1797)"><g transform="matrix(0.512000,0,0,-0.512000,49.152,384.000)">
    <path d="M666.5 700.0H141.5L54.0 612.5V87.5L141.5 0.0H666.5L754.0 87.5V612.5ZM579.0 175.0H229.0V525.0H579.0Z" fill="#26346F"/>
  </g></g><circle cx="180.00" cy="189.68" r="11.04" fill="#26346F"/><g transform="translate(190.40,190.40) scale(0.1797,0.1797)"><g transform="matrix(0.512000,0,0,-0.512000,49.152,384.000)">
    <path d="M666.5 700.0H141.5L54.0 612.5V87.5L141.5 0.0H666.5L754.0 87.5V612.5ZM579.0 175.0H229.0V525.0H579.0Z" fill="#26346F"/>
  </g></g><circle cx="236.40" cy="227.20" r="11.04" fill="#26346F"/><g transform="translate(96.40,276.16) scale(0.1797,0.1797)"><g transform="matrix(0.512000,0,0,-0.512000,49.152,384.000)">
    <path d="M666.5 700.0H141.5L54.0 612.5V87.5L141.5 0.0H666.5L754.0 87.5V612.5ZM579.0 175.0H229.0V525.0H579.0Z" fill="#B81430"/>
  </g></g><circle cx="142.40" cy="312.96" r="11.04" fill="#B81430"/><g transform="translate(171.60,276.16) scale(0.1797,0.1797)"><g transform="matrix(0.512000,0,0,-0.512000,49.152,384.000)">
    <path d="M666.5 700.0H141.5L54.0 612.5V87.5L141.5 0.0H666.5L754.0 87.5V612.5ZM579.0 175.0H229.0V525.0H579.0Z" fill="#B81430"/>
  </g></g><circle cx="217.60" cy="312.96" r="11.04" fill="#B81430"/><g transform="translate(96.40,329.76) scale(0.1797,0.1797)"><g transform="matrix(0.512000,0,0,-0.512000,49.152,384.000)">
    <path d="M666.5 700.0H141.5L54.0 612.5V87.5L141.5 0.0H666.5L754.0 87.5V612.5ZM579.0 175.0H229.0V525.0H579.0Z" fill="#B81430"/>
  </g></g><circle cx="142.40" cy="366.56" r="11.04" fill="#B81430"/><g transform="translate(171.60,329.76) scale(0.1797,0.1797)"><g transform="matrix(0.512000,0,0,-0.512000,49.152,384.000)">
    <path d="M666.5 700.0H141.5L54.0 612.5V87.5L141.5 0.0H666.5L754.0 87.5V612.5ZM579.0 175.0H229.0V525.0H579.0Z" fill="#B81430"/>
  </g></g><circle cx="217.60" cy="366.56" r="11.04" fill="#B81430"/>
</svg>
