<?xml version="1.0" encoding="UTF-8"?>
<svg xmlns="http://www.w3.org/2000/svg" viewBox="0 0 360 504" width="360" height="504">
  <title>Secvier mahjong sou 4</title>
  <desc>RadianN_kswg / ラジアン（柏木主税） CC BY 4.0</desc>
  <rect x="5" y="5" width="350" height="494" rx="32" fill="#FAFAFA" stroke="#AFAFAF" stroke-width="9"/><rect x="20" y="20" width="320" height="464" rx="22" fill="none" stroke="#CFCFCF" stroke-width="4"/>
  <g transform="translate(267.00,51.00) scale(0.1289,0.1289)"><g transform="matrix(0.512000,0,0,-0.512000,53.504,384.000)">
    <path d="M45.0 87.5H482.5V0.0H657.5V87.5H745.0V175.0L657.5 262.5V700.0H570.0L482.5 612.5V262.5H307.5L395.0 350.0V525.0H307.5L45.0 262.5Z" fill="#1E1E2A"/>
  </g></g><g transform="translate(273.00,115.00) scale(0.1055,0.1055)"><g transform="matrix(0.512000,0,0,-0.512000,181.504,384.000)">
    <path d="M233.0 700.0H58.0V612.5L101.75 568.75L58.0 525.0V0.0H233.0V525.0L189.25 568.75L233.0 612.5Z" fill="#1E1E2A"/>
  </g></g><g transform="rotate(180,180.0,252.0)"><g transform="translate(267.00,51.00) scale(0.1289,0.1289)"><g transform="matrix(0.512000,0,0,-0.512000,53.504,384.000)">
    <path d="M45.0 87.5H482.5V0.0H657.5V87.5H745.0V175.0L657.5 262.5V700.0H570.0L482.5 612.5V262.5H307.5L395.0 350.0V525.0H307.5L45.0 262.5Z" fill="#1E1E2A"/>
  </g></g><g transform="translate(273.00,115.00) scale(0.1055,0.1055)"><g transform="matrix(0.512000,0,0,-0.512000,181.504,384.000)">
    <path d="M233.0 700.0H58.0V612.5L101.75 568.75L58.0 525.0V0.0H233.0V525.0L189.25 568.75L233.0 612.5Z" fill="#1E1E2A"/>
  </g></g></g><rect x="127.40" y="140.68" width="30.00" height="98.00" rx="15.00" fill="#218A48"/><rect x="117.40" y="140.68" width="50.00" height="12.74" rx="6.37" fill="#218A48"/><rect x="117.40" y="225.94" width="50.00" height="12.74" rx="6.37" fill="#218A48"/><rect x="117.40" y="185.76" width="50.00" height="7.84" rx="3.92" fill="#145C34"/><rect x="202.60" y="140.68" width="30.00" height="98.00" rx="15.00" fill="#218A48"/><rect x="192.60" y="140.68" width="50.00" height="12.74" rx="6.37" fill="#218A48"/><rect x="192.60" y="225.94" width="50.00" height="12.74" rx="6.37" fill="#218A48"/><rect x="192.60" y="185.76" width="50.00" height="7.84" rx="3.92" fill="#145C34"/><rect x="127.40" y="269.32" width="30.00" height="98.00" rx="15.00" fill="#218A48"/><rect x="117.40" y="269.32" width="50.00" height="12.74" rx="6.37" fill="#218A48"/><rect x="117.40" y="354.58" width="50.00" height="12.74" rx="6.37" fill="#218A48"/><rect x="117.40" y="314.40" width="50.00" height="7.84" rx="3.92" fill="#145C34"/><rect x="202.60" y="269.32" width="30.00" height="98.00" rx="15.00" fill="#218A48"/><rect x="192.60" y="269.32" width="50.00" height="12.74" rx="6.37" fill="#218A48"/><rect x="192.60" y="354.58" width="50.00" height="12.74" rx="6.37" fill="#218A48"/><rect x="192.60" y="314.40" width="50.00" height="7.84" rx="3.92" fill="#145C34"/>
</svg>
