<?xml version="1.0" encoding="UTF-8"?>
<svg xmlns="http://www.w3.org/2000/svg" viewBox="0 0 360 504" width="360" height="504">
  <title>Secvier mahjong sou 5 (red dora)</title>
  <desc>RadianN_kswg / ラジアン（柏木主税） CC BY 4.0</desc>
  <rect x="5" y="5" width="350" height="494" rx="32" fill="#FAFAFA" stroke="#AFAFAF" stroke-width="9"/><rect x="20" y="20" width="320" height="464" rx="22" fill="none" stroke="#CFCFCF" stroke-width="4"/>
  <g transform="translate(267.00,51.00) scale(0.1289,0.1289)"><g transform="matrix(0.512000,0,0,-0.512000,71.424,384.000)">
    <path d="M55.0 700.0V262.5H405.0L492.5 175.0H142.5V87.5L230.0 0.0H580.0L667.5 87.5V262.5L492.5 437.5H230.0V525.0H580.0L667.5 612.5V700.0Z" fill="#EC1B3A"/>
  </g></g><g transform="translate(273.00,115.00) scale(0.1055,0.1055)"><g transform="matrix(0.512000,0,0,-0.512000,181.504,384.000)">
    <path d="M233.0 700.0H58.0V612.5L101.75 568.75L58.0 525.0V0.0H233.0V525.0L189.25 568.75L233.0 612.5Z" fill="#EC1B3A"/>
  </g></g><g transform="rotate(180,180.0,252.0)"><g transform="translate(267.00,51.00) scale(0.1289,0.1289)"><g transform="matrix(0.512000,0,0,-0.512000,71.424,384.000)">
    <path d="M55.0 700.0V262.5H405.0L492.5 175.0H142.5V87.5L230.0 0.0H580.0L667.5 87.5V262.5L492.5 437.5H230.0V525.0H580.0L667.5 612.5V700.0Z" fill="#EC1B3A"/>
  </g></g><g transform="translate(273.00,115.00) scale(0.1055,0.1055)"><g transform="matrix(0.512000,0,0,-0.512000,181.504,384.000)">
    <path d="M233.0 700.0H58.0V612.5L101.75 568.75L58.0 525.0V0.0H233.0V525.0L189.25 568.75L233.0 612.5Z" fill="#EC1B3A"/>
  </g></g></g><rect x="124.84" y="138.32" width="27.60" height="92.00" rx="13.80" fill="#EC1B3A"/><rect x="115.64" y="138.32" width="46.00" height="11.96" rx="5.98" fill="#EC1B3A"/><rect x="115.64" y="218.36" width="46.00" height="11.96" rx="5.98" fill="#EC1B3A"/><rect x="115.64" y="180.64" width="46.00" height="7.36" rx="3.68" fill="#9E0E26"/><rect x="207.56" y="138.32" width="27.60" height="92.00" rx="13.80" fill="#EC1B3A"/><rect x="198.36" y="138.32" width="46.00" height="11.96" rx="5.98" fill="#EC1B3A"/><rect x="198.36" y="218.36" width="46.00" height="11.96" rx="5.98" fill="#EC1B3A"/><rect x="198.36" y="180.64" width="46.00" height="7.36" rx="3.68" fill="#9E0E26"/><rect x="166.20" y="208.00" width="27.60" height="92.00" rx="13.80" fill="#EC1B3A"/><rect x="157.00" y="208.00" width="46.00" height="11.96" rx="5.98" fill="#EC1B3A"/><rect x="157.00" y="288.04" width="46.00" height="11.96" rx="5.98" fill="#EC1B3A"/><rect x="157.00" y="250.32" width="46.00" height="7.36" rx="3.68" fill="#9E0E26"/><rect x="124.84" y="277.68" width="27.60" height="92.00" rx="13.80" fill="#EC1B3A"/><rect x="115.64" y="277.68" width="46.00" height="11.96" rx="5.98" fill="#EC1B3A"/><rect x="115.64" y="357.72" width="46.00" height="11.96" rx="5.98" fill="#EC1B3A"/><rect x="115.64" y="320.00" width="46.00" height="7.36" rx="3.68" fill="#9E0E26"/><rect x="207.56" y="277.68" width="27.60" height="92.00" rx="13.80" fill="#EC1B3A"/><rect x="198.36" y="277.68" width="46.00" height="11.96" rx="5.98" fill="#EC1B3A"/><rect x="198.36" y="357.72" width="46.00" height="11.96" rx="5.98" fill="#EC1B3A"/><rect x="198.36" y="320.00" width="46.00" height="7.36" rx="3.68" fill="#9E0E26"/>
</svg>
