<?xml version="1.0" encoding="UTF-8"?>
<svg xmlns="http://www.w3.org/2000/svg" viewBox="0 0 360 504" width="360" height="504">
  <title>Secvier mahjong sou 3</title>
  <desc>RadianN_kswg / ラジアン（柏木主税） CC BY 4.0</desc>
  <rect x="5" y="5" width="350" height="494" rx="32" fill="#FAFAFA" stroke="#AFAFAF" stroke-width="9"/><rect x="20" y="20" width="320" height="464" rx="22" fill="none" stroke="#CFCFCF" stroke-width="4"/>
  <g transform="translate(267.00,51.00) scale(0.1289,0.1289)"><g transform="matrix(0.512000,0,0,-0.512000,72.448,384.000)">
    <path d="M222.0 700.0 134.5 612.5V525.0H484.5L397.0 437.5H309.5L222.0 350.0V262.5H397.0L484.5 175.0H222.0L134.5 262.5H47.0V87.5L134.5 0.0H572.0L659.5 87.5V262.5L572.0 350.0L659.5 437.5V612.5L572.0 700.0Z" fill="#1E1E2A"/>
  </g></g><g transform="translate(273.00,115.00) scale(0.1055,0.1055)"><g transform="matrix(0.512000,0,0,-0.512000,181.504,384.000)">
    <path d="M233.0 700.0H58.0V612.5L101.75 568.75L58.0 525.0V0.0H233.0V525.0L189.25 568.75L233.0 612.5Z" fill="#1E1E2A"/>
  </g></g><g transform="rotate(180,180.0,252.0)"><g transform="translate(267.00,51.00) scale(0.1289,0.1289)"><g transform="matrix(0.512000,0,0,-0.512000,72.448,384.000)">
    <path d="M222.0 700.0 134.5 612.5V525.0H484.5L397.0 437.5H309.5L222.0 350.0V262.5H397.0L484.5 175.0H222.0L134.5 262.5H47.0V87.5L134.5 0.0H572.0L659.5 87.5V262.5L572.0 350.0L659.5 437.5V612.5L572.0 700.0Z" fill="#1E1E2A"/>
  </g></g><g transform="translate(273.00,115.00) scale(0.1055,0.1055)"><g transform="matrix(0.512000,0,0,-0.512000,181.504,384.000)">
    <path d="M233.0 700.0H58.0V612.5L101.75 568.75L58.0 525.0V0.0H233.0V525.0L189.25 568.75L233.0 612.5Z" fill="#1E1E2A"/>
  </g></g></g><rect x="165.00" y="124.60" width="30.00" height="98.00" rx="15.00" fill="#218A48"/><rect x="155.00" y="124.60" width="50.00" height="12.74" rx="6.37" fill="#218A48"/><rect x="155.00" y="209.86" width="50.00" height="12.74" rx="6.37" fill="#218A48"/><rect x="155.00" y="169.68" width="50.00" height="7.84" rx="3.92" fill="#145C34"/><rect x="131.16" y="274.68" width="30.00" height="98.00" rx="15.00" fill="#218A48"/><rect x="121.16" y="274.68" width="50.00" height="12.74" rx="6.37" fill="#218A48"/><rect x="121.16" y="359.94" width="50.00" height="12.74" rx="6.37" fill="#218A48"/><rect x="121.16" y="319.76" width="50.00" height="7.84" rx="3.92" fill="#145C34"/><rect x="198.84" y="274.68" width="30.00" height="98.00" rx="15.00" fill="#218A48"/><rect x="188.84" y="274.68" width="50.00" height="12.74" rx="6.37" fill="#218A48"/><rect x="188.84" y="359.94" width="50.00" height="12.74" rx="6.37" fill="#218A48"/><rect x="188.84" y="319.76" width="50.00" height="7.84" rx="3.92" fill="#145C34"/>
</svg>
