<?xml version="1.0" encoding="UTF-8"?>
<svg xmlns="http://www.w3.org/2000/svg" viewBox="0 0 360 504" width="360" height="504">
  <title>Secvier mahjong sou 9</title>
  <desc>RadianN_kswg / ラジアン（柏木主税） CC BY 4.0</desc>
  <rect x="5" y="5" width="350" height="494" rx="32" fill="#FAFAFA" stroke="#AFAFAF" stroke-width="9"/><rect x="20" y="20" width="320" height="464" rx="22" fill="none" stroke="#CFCFCF" stroke-width="4"/>
  <g transform="translate(267.00,51.00) scale(0.1289,0.1289)"><g transform="matrix(0.512000,0,0,-0.512000,73.472,384.000)">
    <path d="M221.0 87.5V0.0H396.0L658.5 262.5V612.5L571.0 700.0H133.5L46.0 612.5V437.5L221.0 262.5H396.0ZM308.5 437.5 221.0 525.0H483.5V437.5Z" fill="#1E1E2A"/>
  </g></g><g transform="translate(273.00,115.00) scale(0.1055,0.1055)"><g transform="matrix(0.512000,0,0,-0.512000,181.504,384.000)">
    <path d="M233.0 700.0H58.0V612.5L101.75 568.75L58.0 525.0V0.0H233.0V525.0L189.25 568.75L233.0 612.5Z" fill="#1E1E2A"/>
  </g></g><g transform="rotate(180,180.0,252.0)"><g transform="translate(267.00,51.00) scale(0.1289,0.1289)"><g transform="matrix(0.512000,0,0,-0.512000,73.472,384.000)">
    <path d="M221.0 87.5V0.0H396.0L658.5 262.5V612.5L571.0 700.0H133.5L46.0 612.5V437.5L221.0 262.5H396.0ZM308.5 437.5 221.0 525.0H483.5V437.5Z" fill="#1E1E2A"/>
  </g></g><g transform="translate(273.00,115.00) scale(0.1055,0.1055)"><g transform="matrix(0.512000,0,0,-0.512000,181.504,384.000)">
    <path d="M233.0 700.0H58.0V612.5L101.75 568.75L58.0 525.0V0.0H233.0V525.0L189.25 568.75L233.0 612.5Z" fill="#1E1E2A"/>
  </g></g></g><rect x="114.76" y="131.92" width="25.20" height="78.00" rx="12.60" fill="#218A48"/><rect x="106.36" y="131.92" width="42.00" height="10.14" rx="5.07" fill="#218A48"/><rect x="106.36" y="199.78" width="42.00" height="10.14" rx="5.07" fill="#218A48"/><rect x="106.36" y="167.80" width="42.00" height="6.24" rx="3.12" fill="#145C34"/><rect x="167.40" y="131.92" width="25.20" height="78.00" rx="12.60" fill="#EC1B3A"/><rect x="159.00" y="131.92" width="42.00" height="10.14" rx="5.07" fill="#EC1B3A"/><rect x="159.00" y="199.78" width="42.00" height="10.14" rx="5.07" fill="#EC1B3A"/><rect x="159.00" y="167.80" width="42.00" height="6.24" rx="3.12" fill="#9E0E26"/><rect x="220.04" y="131.92" width="25.20" height="78.00" rx="12.60" fill="#218A48"/><rect x="211.64" y="131.92" width="42.00" height="10.14" rx="5.07" fill="#218A48"/><rect x="211.64" y="199.78" width="42.00" height="10.14" rx="5.07" fill="#218A48"/><rect x="211.64" y="167.80" width="42.00" height="6.24" rx="3.12" fill="#145C34"/><rect x="114.76" y="215.00" width="25.20" height="78.00" rx="12.60" fill="#218A48"/><rect x="106.36" y="215.00" width="42.00" height="10.14" rx="5.07" fill="#218A48"/><rect x="106.36" y="282.86" width="42.00" height="10.14" rx="5.07" fill="#218A48"/><rect x="106.36" y="250.88" width="42.00" height="6.24" rx="3.12" fill="#145C34"/><rect x="167.40" y="215.00" width="25.20" height="78.00" rx="12.60" fill="#EC1B3A"/><rect x="159.00" y="215.00" width="42.00" height="10.14" rx="5.07" fill="#EC1B3A"/><rect x="159.00" y="282.86" width="42.00" height="10.14" rx="5.07" fill="#EC1B3A"/><rect x="159.00" y="250.88" width="42.00" height="6.24" rx="3.12" fill="#9E0E26"/><rect x="220.04" y="215.00" width="25.20" height="78.00" rx="12.60" fill="#218A48"/><rect x="211.64" y="215.00" width="42.00" height="10.14" rx="5.07" fill="#218A48"/><rect x="211.64" y="282.86" width="42.00" height="10.14" rx="5.07" fill="#218A48"/><rect x="211.64" y="250.88" width="42.00" height="6.24" rx="3.12" fill="#145C34"/><rect x="114.76" y="298.08" width="25.20" height="78.00" rx="12.60" fill="#218A48"/><rect x="106.36" y="298.08" width="42.00" height="10.14" rx="5.07" fill="#218A48"/><rect x="106.36" y="365.94" width="42.00" height="10.14" rx="5.07" fill="#218A48"/><rect x="106.36" y="333.96" width="42.00" height="6.24" rx="3.12" fill="#145C34"/><rect x="167.40" y="298.08" width="25.20" height="78.00" rx="12.60" fill="#EC1B3A"/><rect x="159.00" y="298.08" width="42.00" height="10.14" rx="5.07" fill="#EC1B3A"/><rect x="159.00" y="365.94" width="42.00" height="10.14" rx="5.07" fill="#EC1B3A"/><rect x="159.00" y="333.96" width="42.00" height="6.24" rx="3.12" fill="#9E0E26"/><rect x="220.04" y="298.08" width="25.20" height="78.00" rx="12.60" fill="#218A48"/><rect x="211.64" y="298.08" width="42.00" height="10.14" rx="5.07" fill="#218A48"/><rect x="211.64" y="365.94" width="42.00" height="10.14" rx="5.07" fill="#218A48"/><rect x="211.64" y="333.96" width="42.00" height="6.24" rx="3.12" fill="#145C34"/>
</svg>
