<?xml version="1.0" encoding="UTF-8"?>
<svg xmlns="http://www.w3.org/2000/svg" viewBox="0 0 360 504" width="360" height="504">
  <title>Secvier mahjong sou 2</title>
  <desc>RadianN_kswg / ラジアン（柏木主税） CC BY 4.0</desc>
  <rect x="5" y="5" width="350" height="494" rx="32" fill="#FAFAFA" stroke="#AFAFAF" stroke-width="9"/><rect x="20" y="20" width="320" height="464" rx="22" fill="none" stroke="#CFCFCF" stroke-width="4"/>
  <g transform="translate(267.00,51.00) scale(0.1289,0.1289)"><g transform="matrix(0.512000,0,0,-0.512000,71.936,384.000)">
    <path d="M52.0 612.5V525.0H402.0L489.5 437.5H314.5L52.0 175.0V0.0H664.5V87.5L577.0 175.0H314.5L402.0 262.5H577.0L664.5 350.0V525.0L489.5 700.0H139.5Z" fill="#1E1E2A"/>
  </g></g><g transform="translate(273.00,115.00) scale(0.1055,0.1055)"><g transform="matrix(0.512000,0,0,-0.512000,181.504,384.000)">
    <path d="M233.0 700.0H58.0V612.5L101.75 568.75L58.0 525.0V0.0H233.0V525.0L189.25 568.75L233.0 612.5Z" fill="#1E1E2A"/>
  </g></g><g transform="rotate(180,180.0,252.0)"><g transform="translate(267.00,51.00) scale(0.1289,0.1289)"><g transform="matrix(0.512000,0,0,-0.512000,71.936,384.000)">
    <path d="M52.0 612.5V525.0H402.0L489.5 437.5H314.5L52.0 175.0V0.0H664.5V87.5L577.0 175.0H314.5L402.0 262.5H577.0L664.5 350.0V525.0L489.5 700.0H139.5Z" fill="#1E1E2A"/>
  </g></g><g transform="translate(273.00,115.00) scale(0.1055,0.1055)"><g transform="matrix(0.512000,0,0,-0.512000,181.504,384.000)">
    <path d="M233.0 700.0H58.0V612.5L101.75 568.75L58.0 525.0V0.0H233.0V525.0L189.25 568.75L233.0 612.5Z" fill="#1E1E2A"/>
  </g></g></g><rect x="162.60" y="131.68" width="34.80" height="116.00" rx="17.40" fill="#218A48"/><rect x="151.00" y="131.68" width="58.00" height="15.08" rx="7.54" fill="#218A48"/><rect x="151.00" y="232.60" width="58.00" height="15.08" rx="7.54" fill="#218A48"/><rect x="151.00" y="185.04" width="58.00" height="9.28" rx="4.64" fill="#145C34"/><rect x="162.60" y="260.32" width="34.80" height="116.00" rx="17.40" fill="#218A48"/><rect x="151.00" y="260.32" width="58.00" height="15.08" rx="7.54" fill="#218A48"/><rect x="151.00" y="361.24" width="58.00" height="15.08" rx="7.54" fill="#218A48"/><rect x="151.00" y="313.68" width="58.00" height="9.28" rx="4.64" fill="#145C34"/>
</svg>
