<?xml version="1.0" encoding="UTF-8"?>
<svg xmlns="http://www.w3.org/2000/svg" viewBox="0 0 360 504" width="360" height="504">
  <title>Secvier mahjong sou 8</title>
  <desc>RadianN_kswg / ラジアン（柏木主税） CC BY 4.0</desc>
  <rect x="5" y="5" width="350" height="494" rx="32" fill="#FAFAFA" stroke="#AFAFAF" stroke-width="9"/><rect x="20" y="20" width="320" height="464" rx="22" fill="none" stroke="#CFCFCF" stroke-width="4"/>
  <g transform="translate(267.00,51.00) scale(0.1289,0.1289)"><g transform="matrix(0.512000,0,0,-0.512000,69.888,384.000)">
    <path d="M57.0 437.5 144.5 350.0 57.0 262.5V87.5L144.5 0.0H582.0L669.5 87.5V262.5L582.0 350.0L669.5 437.5V612.5L582.0 700.0H144.5L57.0 612.5ZM232.0 262.5H407.0L494.5 175.0H232.0ZM232.0 525.0H494.5V437.5H319.5Z" fill="#1E1E2A"/>
  </g></g><g transform="translate(273.00,115.00) scale(0.1055,0.1055)"><g transform="matrix(0.512000,0,0,-0.512000,181.504,384.000)">
    <path d="M233.0 700.0H58.0V612.5L101.75 568.75L58.0 525.0V0.0H233.0V525.0L189.25 568.75L233.0 612.5Z" fill="#1E1E2A"/>
  </g></g><g transform="rotate(180,180.0,252.0)"><g transform="translate(267.00,51.00) scale(0.1289,0.1289)"><g transform="matrix(0.512000,0,0,-0.512000,69.888,384.000)">
    <path d="M57.0 437.5 144.5 350.0 57.0 262.5V87.5L144.5 0.0H582.0L669.5 87.5V262.5L582.0 350.0L669.5 437.5V612.5L582.0 700.0H144.5L57.0 612.5ZM232.0 262.5H407.0L494.5 175.0H232.0ZM232.0 525.0H494.5V437.5H319.5Z" fill="#1E1E2A"/>
  </g></g><g transform="translate(273.00,115.00) scale(0.1055,0.1055)"><g transform="matrix(0.512000,0,0,-0.512000,181.504,384.000)">
    <path d="M233.0 700.0H58.0V612.5L101.75 568.75L58.0 525.0V0.0H233.0V525.0L189.25 568.75L233.0 612.5Z" fill="#1E1E2A"/>
  </g></g></g><rect x="96.04" y="144.36" width="28.80" height="96.00" rx="14.40" fill="#218A48"/><rect x="86.44" y="144.36" width="48.00" height="12.48" rx="6.24" fill="#218A48"/><rect x="86.44" y="227.88" width="48.00" height="12.48" rx="6.24" fill="#218A48"/><rect x="86.44" y="188.52" width="48.00" height="7.68" rx="3.84" fill="#145C34"/><g transform="rotate(28.0,161.20,192.36)"><rect x="146.80" y="144.36" width="28.80" height="96.00" rx="14.40" fill="#218A48"/><rect x="137.20" y="144.36" width="48.00" height="12.48" rx="6.24" fill="#218A48"/><rect x="137.20" y="227.88" width="48.00" height="12.48" rx="6.24" fill="#218A48"/><rect x="137.20" y="188.52" width="48.00" height="7.68" rx="3.84" fill="#145C34"/></g><g transform="rotate(-28.0,198.80,192.36)"><rect x="184.40" y="144.36" width="28.80" height="96.00" rx="14.40" fill="#218A48"/><rect x="174.80" y="144.36" width="48.00" height="12.48" rx="6.24" fill="#218A48"/><rect x="174.80" y="227.88" width="48.00" height="12.48" rx="6.24" fill="#218A48"/><rect x="174.80" y="188.52" width="48.00" height="7.68" rx="3.84" fill="#145C34"/></g><rect x="235.16" y="144.36" width="28.80" height="96.00" rx="14.40" fill="#218A48"/><rect x="225.56" y="144.36" width="48.00" height="12.48" rx="6.24" fill="#218A48"/><rect x="225.56" y="227.88" width="48.00" height="12.48" rx="6.24" fill="#218A48"/><rect x="225.56" y="188.52" width="48.00" height="7.68" rx="3.84" fill="#145C34"/><rect x="96.04" y="267.64" width="28.80" height="96.00" rx="14.40" fill="#218A48"/><rect x="86.44" y="267.64" width="48.00" height="12.48" rx="6.24" fill="#218A48"/><rect x="86.44" y="351.16" width="48.00" height="12.48" rx="6.24" fill="#218A48"/><rect x="86.44" y="311.80" width="48.00" height="7.68" rx="3.84" fill="#145C34"/><g transform="rotate(-28.0,161.20,315.64)"><rect x="146.80" y="267.64" width="28.80" height="96.00" rx="14.40" fill="#218A48"/><rect x="137.20" y="267.64" width="48.00" height="12.48" rx="6.24" fill="#218A48"/><rect x="137.20" y="351.16" width="48.00" height="12.48" rx="6.24" fill="#218A48"/><rect x="137.20" y="311.80" width="48.00" height="7.68" rx="3.84" fill="#145C34"/></g><g transform="rotate(28.0,198.80,315.64)"><rect x="184.40" y="267.64" width="28.80" height="96.00" rx="14.40" fill="#218A48"/><rect x="174.80" y="267.64" width="48.00" height="12.48" rx="6.24" fill="#218A48"/><rect x="174.80" y="351.16" width="48.00" height="12.48" rx="6.24" fill="#218A48"/><rect x="174.80" y="311.80" width="48.00" height="7.68" rx="3.84" fill="#145C34"/></g><rect x="235.16" y="267.64" width="28.80" height="96.00" rx="14.40" fill="#218A48"/><rect x="225.56" y="267.64" width="48.00" height="12.48" rx="6.24" fill="#218A48"/><rect x="225.56" y="351.16" width="48.00" height="12.48" rx="6.24" fill="#218A48"/><rect x="225.56" y="311.80" width="48.00" height="7.68" rx="3.84" fill="#145C34"/>
</svg>
