<?xml version="1.0" encoding="UTF-8"?>
<svg xmlns="http://www.w3.org/2000/svg" viewBox="0 0 360 504" width="360" height="504">
  <title>Secvier mahjong sou 6</title>
  <desc>RadianN_kswg / ラジアン（柏木主税） CC BY 4.0</desc>
  <rect x="5" y="5" width="350" height="494" rx="32" fill="#FAFAFA" stroke="#AFAFAF" stroke-width="9"/><rect x="20" y="20" width="320" height="464" rx="22" fill="none" stroke="#CFCFCF" stroke-width="4"/>
  <g transform="translate(267.00,51.00) scale(0.1289,0.1289)"><g transform="matrix(0.512000,0,0,-0.512000,73.472,384.000)">
    <path d="M491.5 612.5V700.0H316.5L54.0 437.5V87.5L141.5 0.0H579.0L666.5 87.5V262.5L491.5 437.5H316.5ZM404.0 262.5 491.5 175.0H229.0V262.5Z" fill="#1E1E2A"/>
  </g></g><g transform="translate(273.00,115.00) scale(0.1055,0.1055)"><g transform="matrix(0.512000,0,0,-0.512000,181.504,384.000)">
    <path d="M233.0 700.0H58.0V612.5L101.75 568.75L58.0 525.0V0.0H233.0V525.0L189.25 568.75L233.0 612.5Z" fill="#1E1E2A"/>
  </g></g><g transform="rotate(180,180.0,252.0)"><g transform="translate(267.00,51.00) scale(0.1289,0.1289)"><g transform="matrix(0.512000,0,0,-0.512000,73.472,384.000)">
    <path d="M491.5 612.5V700.0H316.5L54.0 437.5V87.5L141.5 0.0H579.0L666.5 87.5V262.5L491.5 437.5H316.5ZM404.0 262.5 491.5 175.0H229.0V262.5Z" fill="#1E1E2A"/>
  </g></g><g transform="translate(273.00,115.00) scale(0.1055,0.1055)"><g transform="matrix(0.512000,0,0,-0.512000,181.504,384.000)">
    <path d="M233.0 700.0H58.0V612.5L101.75 568.75L58.0 525.0V0.0H233.0V525.0L189.25 568.75L233.0 612.5Z" fill="#1E1E2A"/>
  </g></g></g><rect x="129.80" y="130.92" width="25.20" height="80.00" rx="12.60" fill="#218A48"/><rect x="121.40" y="130.92" width="42.00" height="10.40" rx="5.20" fill="#218A48"/><rect x="121.40" y="200.52" width="42.00" height="10.40" rx="5.20" fill="#218A48"/><rect x="121.40" y="167.72" width="42.00" height="6.40" rx="3.20" fill="#145C34"/><rect x="205.00" y="130.92" width="25.20" height="80.00" rx="12.60" fill="#218A48"/><rect x="196.60" y="130.92" width="42.00" height="10.40" rx="5.20" fill="#218A48"/><rect x="196.60" y="200.52" width="42.00" height="10.40" rx="5.20" fill="#218A48"/><rect x="196.60" y="167.72" width="42.00" height="6.40" rx="3.20" fill="#145C34"/><rect x="129.80" y="214.00" width="25.20" height="80.00" rx="12.60" fill="#218A48"/><rect x="121.40" y="214.00" width="42.00" height="10.40" rx="5.20" fill="#218A48"/><rect x="121.40" y="283.60" width="42.00" height="10.40" rx="5.20" fill="#218A48"/><rect x="121.40" y="250.80" width="42.00" height="6.40" rx="3.20" fill="#145C34"/><rect x="205.00" y="214.00" width="25.20" height="80.00" rx="12.60" fill="#218A48"/><rect x="196.60" y="214.00" width="42.00" height="10.40" rx="5.20" fill="#218A48"/><rect x="196.60" y="283.60" width="42.00" height="10.40" rx="5.20" fill="#218A48"/><rect x="196.60" y="250.80" width="42.00" height="6.40" rx="3.20" fill="#145C34"/><rect x="129.80" y="297.08" width="25.20" height="80.00" rx="12.60" fill="#218A48"/><rect x="121.40" y="297.08" width="42.00" height="10.40" rx="5.20" fill="#218A48"/><rect x="121.40" y="366.68" width="42.00" height="10.40" rx="5.20" fill="#218A48"/><rect x="121.40" y="333.88" width="42.00" height="6.40" rx="3.20" fill="#145C34"/><rect x="205.00" y="297.08" width="25.20" height="80.00" rx="12.60" fill="#218A48"/><rect x="196.60" y="297.08" width="42.00" height="10.40" rx="5.20" fill="#218A48"/><rect x="196.60" y="366.68" width="42.00" height="10.40" rx="5.20" fill="#218A48"/><rect x="196.60" y="333.88" width="42.00" height="6.40" rx="3.20" fill="#145C34"/>
</svg>
