<?xml version="1.0" encoding="UTF-8"?>
<svg xmlns="http://www.w3.org/2000/svg" viewBox="0 0 360 504" width="360" height="504">
  <title>Secvier mahjong sou 7</title>
  <desc>RadianN_kswg / ラジアン（柏木主税） CC BY 4.0</desc>
  <rect x="5" y="5" width="350" height="494" rx="32" fill="#FAFAFA" stroke="#AFAFAF" stroke-width="9"/><rect x="20" y="20" width="320" height="464" rx="22" fill="none" stroke="#CFCFCF" stroke-width="4"/>
  <g transform="translate(267.00,51.00) scale(0.1289,0.1289)"><g transform="matrix(0.512000,0,0,-0.512000,99.072,384.000)">
    <path d="M46.0 437.5H133.5L221.0 525.0H396.0L221.0 350.0V0.0H396.0V350.0L571.0 525.0V700.0H46.0Z" fill="#1E1E2A"/>
  </g></g><g transform="translate(273.00,115.00) scale(0.1055,0.1055)"><g transform="matrix(0.512000,0,0,-0.512000,181.504,384.000)">
    <path d="M233.0 700.0H58.0V612.5L101.75 568.75L58.0 525.0V0.0H233.0V525.0L189.25 568.75L233.0 612.5Z" fill="#1E1E2A"/>
  </g></g><g transform="rotate(180,180.0,252.0)"><g transform="translate(267.00,51.00) scale(0.1289,0.1289)"><g transform="matrix(0.512000,0,0,-0.512000,99.072,384.000)">
    <path d="M46.0 437.5H133.5L221.0 525.0H396.0L221.0 350.0V0.0H396.0V350.0L571.0 525.0V700.0H46.0Z" fill="#1E1E2A"/>
  </g></g><g transform="translate(273.00,115.00) scale(0.1055,0.1055)"><g transform="matrix(0.512000,0,0,-0.512000,181.504,384.000)">
    <path d="M233.0 700.0H58.0V612.5L101.75 568.75L58.0 525.0V0.0H233.0V525.0L189.25 568.75L233.0 612.5Z" fill="#1E1E2A"/>
  </g></g></g><rect x="168.60" y="117.48" width="22.80" height="64.00" rx="11.40" fill="#EC1B3A"/><rect x="161.00" y="117.48" width="38.00" height="8.32" rx="4.16" fill="#EC1B3A"/><rect x="161.00" y="173.16" width="38.00" height="8.32" rx="4.16" fill="#EC1B3A"/><rect x="161.00" y="146.92" width="38.00" height="5.12" rx="2.56" fill="#9E0E26"/><rect x="115.96" y="235.40" width="22.80" height="64.00" rx="11.40" fill="#218A48"/><rect x="108.36" y="235.40" width="38.00" height="8.32" rx="4.16" fill="#218A48"/><rect x="108.36" y="291.08" width="38.00" height="8.32" rx="4.16" fill="#218A48"/><rect x="108.36" y="264.84" width="38.00" height="5.12" rx="2.56" fill="#145C34"/><rect x="168.60" y="235.40" width="22.80" height="64.00" rx="11.40" fill="#218A48"/><rect x="161.00" y="235.40" width="38.00" height="8.32" rx="4.16" fill="#218A48"/><rect x="161.00" y="291.08" width="38.00" height="8.32" rx="4.16" fill="#218A48"/><rect x="161.00" y="264.84" width="38.00" height="5.12" rx="2.56" fill="#145C34"/><rect x="221.24" y="235.40" width="22.80" height="64.00" rx="11.40" fill="#218A48"/><rect x="213.64" y="235.40" width="38.00" height="8.32" rx="4.16" fill="#218A48"/><rect x="213.64" y="291.08" width="38.00" height="8.32" rx="4.16" fill="#218A48"/><rect x="213.64" y="264.84" width="38.00" height="5.12" rx="2.56" fill="#145C34"/><rect x="115.96" y="315.80" width="22.80" height="64.00" rx="11.40" fill="#218A48"/><rect x="108.36" y="315.80" width="38.00" height="8.32" rx="4.16" fill="#218A48"/><rect x="108.36" y="371.48" width="38.00" height="8.32" rx="4.16" fill="#218A48"/><rect x="108.36" y="345.24" width="38.00" height="5.12" rx="2.56" fill="#145C34"/><rect x="168.60" y="315.80" width="22.80" height="64.00" rx="11.40" fill="#218A48"/><rect x="161.00" y="315.80" width="38.00" height="8.32" rx="4.16" fill="#218A48"/><rect x="161.00" y="371.48" width="38.00" height="8.32" rx="4.16" fill="#218A48"/><rect x="161.00" y="345.24" width="38.00" height="5.12" rx="2.56" fill="#145C34"/><rect x="221.24" y="315.80" width="22.80" height="64.00" rx="11.40" fill="#218A48"/><rect x="213.64" y="315.80" width="38.00" height="8.32" rx="4.16" fill="#218A48"/><rect x="213.64" y="371.48" width="38.00" height="8.32" rx="4.16" fill="#218A48"/><rect x="213.64" y="345.24" width="38.00" height="5.12" rx="2.56" fill="#145C34"/>
</svg>
