<?xml version="1.0" encoding="UTF-8"?>
<svg xmlns="http://www.w3.org/2000/svg" viewBox="0 0 1000 1000" width="1000" height="1000">
  <title>Dela Gothic One 夏 (summer)</title>
  <g transform="translate(75.679,818.025) scale(0.86420,-0.86420)"><path d="M942 32 934 -9Q680 -9 517 56Q424 20 325.0 9.0Q226 -2 74 -5Q66 -6 51 -6Q48 26 33.5 79.5Q19 133 5 161Q64 153 83 151Q62 196 25 248Q101 260 150.5 272.5Q200 285 248 304H57V595H387L395 612H34V745H966V612H623L615 595H943V304H483Q483 304 466 287H886L916 203Q886 188 851.0 176.5Q816 165 761 150Q874 148 977 160Q965 143 957.0 110.0Q949 77 942 32ZM710 511V528H290V511ZM290 458V441H710V458ZM290 389V372H710V389ZM586 207H419Q461 187 494 176Q553 189 586 207ZM354 155Q332 176 318 193Q262 167 192 145Q264 145 354 155Z"/></g>
</svg>
