<?xml version="1.0" encoding="UTF-8"?>
<svg xmlns="http://www.w3.org/2000/svg" viewBox="0 0 1000 1000" width="1000" height="1000">
  <title>Dela Gothic One 秋 (autumn)</title>
  <g transform="translate(66.230,825.328) scale(0.86066,-0.86066)"><path d="M992 209Q958 139 941.5 95.0Q925 51 910 -9Q853 21 807.5 58.5Q762 96 706 176Q675 119 634.0 83.5Q593 48 547.5 29.0Q502 10 439 -5Q422 64 377 125L368 67Q339 131 319 164V1H125V157Q94 77 50 28Q40 172 16 286Q71 309 115 369H25V538H125V560Q100 559 49 559Q47 614 41.5 658.5Q36 703 23 741Q129 740 216.5 745.0Q304 750 403 762Q400 729 400 693Q400 637 405 572Q343 568 319 567V538H409V369H331Q371 340 416 301Q408 275 393 210Q463 222 504.0 245.5Q545 269 565 320Q594 395 594 610V643L593 765L791 763L790 596Q790 542 783.0 473.5Q776 405 763 342Q810 290 861.5 260.0Q913 230 992 209ZM577 711V664Q577 429 545 306L411 326Q422 382 426.5 456.0Q431 530 434 648L436 721ZM780 345Q796 420 802.5 508.5Q809 597 812 718L978 692Q971 588 957.0 483.0Q943 378 922 307Z"/></g>
</svg>
