<?xml version="1.0" encoding="UTF-8"?>
<svg xmlns="http://www.w3.org/2000/svg" viewBox="0 0 1000 1000" width="1000" height="1000">
  <title>Dela Gothic One 東 (east)</title>
  <g transform="translate(77.465,820.282) scale(0.84507,-0.84507)"><path d="M903 -7Q832 9 750.0 39.5Q668 70 604 109V-9H396V109Q330 70 248.0 39.0Q166 8 97 -7Q80 52 58.5 98.0Q37 144 3 189Q107 189 201.5 199.0Q296 209 367 225H70V573H396V594H33V730H396V767H604V730H967V594H604V573H930V225H633Q704 209 798.5 199.0Q893 189 997 189Q963 144 941.5 98.0Q920 52 903 -7ZM396 442V464H273V442ZM727 442V464H604V442ZM396 359H273V337H396ZM604 359V337H727V359Z"/></g>
</svg>
