<?xml version="1.0" encoding="UTF-8"?>
<svg xmlns="http://www.w3.org/2000/svg" viewBox="0 0 1000 1000" width="1000" height="1000">
  <title>Dela Gothic One 南 (south)</title>
  <g transform="translate(44.469,850.304) scale(0.91106,-0.91106)"><path d="M961 595H610V578H950V149Q950 90 934.5 60.5Q919 31 880.5 20.0Q842 9 764 9Q717 9 690 10Q689 57 684 103H592V4H408V103H285V240H408V257H285V373H327Q321 386 311 412L465 430Q470 411 484 373H516Q530 411 535 430L689 412Q679 386 673 373H715V257H592V240H715V157Q727 158 730.0 167.5Q733 177 733 203V435H268V0H43V578H390V595H39V742H390V769H610V742H961Z"/></g>
</svg>
