<?xml version="1.0" encoding="UTF-8"?>
<svg xmlns="http://www.w3.org/2000/svg" viewBox="0 0 1000 1000" width="1000" height="1000">
  <title>Dela Gothic One 冬 (winter)</title>
  <g transform="translate(86.680,816.461) scale(0.83499,-0.83499)"><path d="M514 365Q478 352 470 350Q543 335 665 294L612 216Q831 197 937 187Q905 137 891.5 96.0Q878 55 866 -8Q686 24 515.5 37.0Q345 50 74 59Q96 101 108.5 143.5Q121 186 134 246Q268 241 501 225Q444 245 346 273L384 325Q238 288 27 270Q25 334 19.0 378.5Q13 423 -8 470Q59 462 129 462Q227 462 304 479L266 504L439 591Q449 586 457.0 581.0Q465 576 472 572L505 552Q532 566 601 604H389Q349 569 304.5 543.0Q260 517 198 485Q176 473 172 471Q133 506 91.5 533.0Q50 560 -6 584Q125 634 189.0 672.5Q253 711 293 766H504L495 744L869 745L967 635Q876 554 751 481Q789 478 833 478Q903 478 998 487Q976 424 967.0 382.5Q958 341 952 287Q785 299 685.5 317.0Q586 335 514 365Z"/></g>
</svg>
