<?xml version="1.0" encoding="UTF-8"?>
<svg xmlns="http://www.w3.org/2000/svg" viewBox="0 0 1000 1000" width="1000" height="1000">
  <title>Dela Gothic One 北 (north)</title>
  <g transform="translate(69.533,829.720) scale(0.87227,-0.87227)"><path d="M957 350Q968 293 970.0 258.0Q972 223 972 170Q972 99 929.5 56.0Q887 13 820 6Q789 3 737 3Q687 3 628 6Q578 8 556.5 22.5Q535 37 531 75Q419 47 160 5L73 -10Q58 68 46.5 117.0Q35 166 12 218Q172 229 243 236V419H27V629H243V765H469V270Q483 273 530 284V766H740V640Q821 654 946 682Q948 569 975 483L866 462L740 438V227Q740 219 744.0 216.0Q748 213 764 213Q786 213 794.0 215.5Q802 218 802 223Q801 304 777 379Q827 363 957 350Z"/></g>
</svg>
