<?xml version="1.0" encoding="UTF-8"?>
<svg xmlns="http://www.w3.org/2000/svg" viewBox="0 0 1000 1000" width="1000" height="1000">
  <title>Dela Gothic One 春 (spring)</title>
  <g transform="translate(93.176,818.706) scale(0.82353,-0.82353)"><path d="M954 159 888 186V5H661V12H350V5H123V186Q84 170 44 159Q35 203 19.5 257.0Q4 311 -16 359Q45 361 87.0 367.5Q129 374 161 386H19V495H288L301 514H56V612H352Q355 618 359 630H43V739H390L396 769H608Q605 759 597 739H957V630H553Q547 618 545 612H944V514H674Q689 496 690 495H981V386H844Q916 355 1004 359Q983 309 972.5 265.0Q962 221 954 159ZM494 514 483 495H538Q538 502 540 514ZM407 386Q383 359 383 359H607L582 386ZM661 255H350V234H661ZM350 144V121H661V144Z"/></g>
</svg>
